<svg xmlns:dc="http://purl.org/dc/elements/1.1/" xmlns:cc="http://creativecommons.org/ns#" xmlns:rdf="http://www.w3.org/1999/02/22-rdf-syntax-ns#" xmlns:svg="http://www.w3.org/2000/svg" xmlns="http://www.w3.org/2000/svg" xmlns:sodipodi="http://sodipodi.sourceforge.net/DTD/sodipodi-0.dtd" xmlns:inkscape="http://www.inkscape.org/namespaces/inkscape" sodipodi:docname="Icons.tar" inkscape:version="1.0 (4035a4f, 2020-05-01)" id="svg8" version="1.1" viewBox="0 0 29.665342 24.105707" height="24.105707mm" width="29.665342mm">
  <defs id="defs2"/>
  <sodipodi:namedview inkscape:snap-global="false" inkscape:guide-bbox="true" showguides="true" inkscape:window-maximized="0" inkscape:window-y="22" inkscape:window-x="0" inkscape:window-height="856" inkscape:window-width="1252" inkscape:showpageshadow="false" inkscape:pagecheckerboard="true" showgrid="false" inkscape:document-rotation="0" inkscape:current-layer="layer5" inkscape:document-units="mm" inkscape:cy="49.013238" inkscape:cx="212.5066" inkscape:zoom="1.3514451" inkscape:pageshadow="2" inkscape:pageopacity="0" borderopacity="1.0" bordercolor="#666666" pagecolor="#ffffff" id="base">
    <sodipodi:guide id="guide93" orientation="0,-1" position="33.380163,11.967466"/>
    <sodipodi:guide id="guide148" orientation="1,0" position="2.7687202,-12.995144"/>
    <sodipodi:guide id="guide150" orientation="1,0" position="26.71815,-10.503296"/>
  </sodipodi:namedview>
  <metadata id="metadata5">
    <rdf:RDF>
      <cc:Work rdf:about="">
        <dc:format>image/svg+xml</dc:format>
        <dc:type rdf:resource="http://purl.org/dc/dcmitype/StillImage"/>
        <dc:title/>
      </cc:Work>
    </rdf:RDF>
  </metadata>
  <svg:g style="display:none" inkscape:label="user" id="layer3" inkscape:groupmode="layer">
    <svg:path transform="scale(0.26458333)" d="M 56.060547,0.26953125 C 30.961566,0.26898115 10.614684,20.615863 10.615234,45.714844 10.615763,70.813061 30.962329,91.158753 56.060547,91.158203 81.158004,91.157676 101.50338,70.8123 101.50391,45.714844 101.50446,20.616624 81.158767,0.27005812 56.060547,0.26953125 Z M 55.9375,21.662109 a 15.376624,15.376624 0 0 1 0.08203,0 15.376624,15.376624 0 0 1 15.376953,15.376953 15.376624,15.376624 0 0 1 -8.414062,13.708985 29.196122,29.196122 0 0 1 21.042969,21.458984 C 76.987689,79.589125 67.064991,84.197034 56.060547,84.197266 44.701407,84.197513 34.488419,79.29504 27.417969,71.492188 A 29.196122,29.196122 0 0 1 48.806641,50.617188 15.376624,15.376624 0 0 1 40.644531,37.039062 15.376624,15.376624 0 0 1 55.9375,21.662109 Z" style="fill:#000000;stroke-width:21.9749;stroke-dasharray:21.9749, 21.9749;paint-order:markers fill stroke" id="path39"/>
  </svg:g>
  </svg>